<?xml version="1.0" encoding="utf-8"?>
<!-- Generator: Adobe Illustrator 25.4.1, SVG Export Plug-In . SVG Version: 6.00 Build 0)  -->
<svg version="1.1" id="Layer_1" xmlns="http://www.w3.org/2000/svg" xmlns:xlink="http://www.w3.org/1999/xlink" x="0px" y="0px"
	 viewBox="0 0 792 288" style="enable-background:new 0 0 792 288;" xml:space="preserve">
<style type="text/css">
	.st0{fill:#2A54A4;}
	.st1{opacity:0.6;fill:#2A54A4;}
	.st2{opacity:0.25;fill:#2A54A4;}
	.st3{fill-rule:evenodd;clip-rule:evenodd;fill:#2A54A4;}
</style>
<g>
	<g>
		<path class="st0" d="M96.4,198.1h-9.6l-2.5,5.1h-3.6l11-22.3l10.7,22.3h-3.7L96.4,198.1z M95,195.1l-3.3-7.1l-3.5,7.1H95z"/>
		<path class="st0" d="M117.3,182.2v18h6.6v3h-9.9v-21H117.3z"/>
		<path class="st0" d="M135,182.2l5.8,14l6.1-15.1l5.8,15.1l6.2-14h3.7l-10,22.4l-5.7-14.9l-6,14.9l-9.5-22.4H135z"/>
		<path class="st0" d="M185.2,198.1h-9.6l-2.5,5.1h-3.6l11-22.3l10.7,22.3h-3.7L185.2,198.1z M183.9,195.1l-3.3-7.1l-3.5,7.1H183.9z
			"/>
		<path class="st0" d="M205.3,194.1l-7.3-11.9h3.9l5.1,8.4l5.1-8.4h3.9l-7.3,11.9v9.1h-3.4V194.1z"/>
		<path class="st0" d="M239.2,185.3l-2.7,1.5c-0.5-0.8-1-1.4-1.5-1.6c-0.5-0.3-1.1-0.4-1.9-0.4c-0.9,0-1.7,0.2-2.3,0.7
			c-0.6,0.5-0.9,1.1-0.9,1.9c0,1,0.8,1.9,2.4,2.5l2.2,0.9c1.8,0.7,3.1,1.5,4,2.5c0.8,1,1.3,2.2,1.3,3.7c0,1.9-0.7,3.5-2.1,4.8
			c-1.4,1.3-3.1,1.9-5.1,1.9c-1.9,0-3.5-0.5-4.8-1.6c-1.2-1.1-2-2.6-2.3-4.6l3.4-0.7c0.2,1.2,0.4,2.1,0.8,2.6c0.7,0.9,1.7,1.4,3,1.4
			c1.1,0,1.9-0.3,2.6-1c0.7-0.7,1-1.5,1-2.5c0-0.4-0.1-0.8-0.2-1.1s-0.3-0.7-0.6-0.9c-0.3-0.3-0.6-0.6-1-0.8s-0.9-0.5-1.4-0.7
			l-2.2-0.8c-3.1-1.2-4.6-3-4.6-5.3c0-1.6,0.6-2.9,1.9-4c1.3-1.1,2.9-1.6,4.8-1.6C235.8,181.7,237.8,182.9,239.2,185.3z"/>
		<path class="st0" d="M276.6,185.1v18h-3.4v-18h-5.1v-3h13.6v3H276.6z"/>
		<path class="st0" d="M296.8,190.4h9.6v-8.2h3.4v21h-3.4v-9.8h-9.6v9.8h-3.4v-21h3.4V190.4z"/>
		<path class="st0" d="M336.1,185.1h-8.9v5.1h8.7v3h-8.7v7h8.9v3h-12.3v-21h12.3V185.1z"/>
		<path class="st0" d="M370.5,182.2v21h-3.4v-21H370.5z"/>
		<path class="st0" d="M384.5,203.2v-21h4.7c2.2,0,4,0.2,5.3,0.6c1.4,0.4,2.7,1.1,3.8,2.1c2.3,2,3.5,4.6,3.5,7.8
			c0,3.2-1.2,5.8-3.6,7.8c-1.2,1-2.5,1.7-3.8,2.1c-1.2,0.4-3,0.6-5.2,0.6H384.5z M387.9,200.2h1.5c1.5,0,2.8-0.1,3.8-0.4
			c1-0.3,1.9-0.8,2.7-1.5c1.7-1.4,2.5-3.3,2.5-5.6c0-2.3-0.8-4.2-2.5-5.6c-1.5-1.3-3.6-1.9-6.5-1.9h-1.5V200.2z"/>
		<path class="st0" d="M427,185.1h-8.9v5.1h8.7v3h-8.7v7h8.9v3h-12.3v-21H427V185.1z"/>
		<path class="st0" d="M453.3,198.1h-9.6l-2.5,5.1h-3.6l11-22.3l10.7,22.3h-3.7L453.3,198.1z M451.9,195.1l-3.3-7.1l-3.5,7.1H451.9z
			"/>
		<path class="st0" d="M474.2,182.2v18h6.6v3h-9.9v-21H474.2z"/>
		<path class="st0" d="M523.1,185.3l-2.7,1.5c-0.5-0.8-1-1.4-1.5-1.6c-0.5-0.3-1.1-0.4-1.9-0.4c-0.9,0-1.7,0.2-2.3,0.7
			c-0.6,0.5-0.9,1.1-0.9,1.9c0,1,0.8,1.9,2.4,2.5l2.2,0.9c1.8,0.7,3.1,1.5,4,2.5c0.8,1,1.3,2.2,1.3,3.7c0,1.9-0.7,3.5-2.1,4.8
			c-1.4,1.3-3.1,1.9-5.1,1.9c-1.9,0-3.5-0.5-4.8-1.6c-1.2-1.1-2-2.6-2.3-4.6l3.4-0.7c0.2,1.2,0.4,2.1,0.8,2.6c0.7,0.9,1.7,1.4,3,1.4
			c1,0,1.9-0.3,2.6-1c0.7-0.7,1-1.5,1-2.5c0-0.4-0.1-0.8-0.2-1.1c-0.1-0.3-0.3-0.7-0.6-0.9c-0.3-0.3-0.6-0.6-1-0.8
			c-0.4-0.2-0.9-0.5-1.4-0.7l-2.2-0.8c-3.1-1.2-4.6-3-4.6-5.3c0-1.6,0.6-2.9,1.9-4c1.3-1.1,2.9-1.6,4.8-1.6
			C519.6,181.7,521.6,182.9,523.1,185.3z"/>
		<path class="st0" d="M535.3,192.6c0-3,1.2-5.5,3.5-7.6c2.3-2.1,5-3.2,8.3-3.2c3.2,0,5.9,1.1,8.2,3.2c2.3,2.1,3.4,4.7,3.4,7.7
			c0,3-1.1,5.6-3.4,7.7c-2.3,2.1-5.1,3.2-8.3,3.2c-2.9,0-5.5-0.9-7.8-2.8C536.6,198.7,535.3,195.9,535.3,192.6z M538.7,192.6
			c0,2.3,0.8,4.2,2.5,5.7c1.6,1.5,3.6,2.2,5.7,2.2c2.3,0,4.3-0.8,5.9-2.3c1.6-1.5,2.4-3.4,2.4-5.6c0-2.2-0.8-4.1-2.4-5.6
			c-1.6-1.5-3.5-2.3-5.9-2.3c-2.3,0-4.3,0.8-5.9,2.3C539.5,188.5,538.7,190.4,538.7,192.6z"/>
		<path class="st0" d="M574.9,182.2v18h6.6v3h-9.9v-21H574.9z"/>
		<path class="st0" d="M596.1,182.2v12.7c0,1.8,0.3,3.1,0.9,4c0.9,1.2,2.2,1.8,3.9,1.8c1.7,0,3-0.6,4-1.8c0.6-0.8,0.9-2.1,0.9-4
			v-12.7h3.4v13.5c0,2.2-0.7,4-2.2,5.5c-1.6,1.6-3.7,2.4-6.1,2.4s-4.4-0.8-6.1-2.4c-1.5-1.4-2.2-3.3-2.2-5.5v-13.5H596.1z"/>
		<path class="st0" d="M629.4,185.1v18h-3.4v-18h-5.1v-3h13.6v3H629.4z"/>
		<path class="st0" d="M649.6,182.2v21h-3.4v-21H649.6z"/>
		<path class="st0" d="M662.6,192.6c0-3,1.2-5.5,3.5-7.6c2.3-2.1,5-3.2,8.3-3.2c3.2,0,5.9,1.1,8.2,3.2c2.3,2.1,3.4,4.7,3.4,7.7
			c0,3-1.1,5.6-3.4,7.7c-2.3,2.1-5.1,3.2-8.3,3.2c-2.9,0-5.5-0.9-7.8-2.8C663.9,198.7,662.6,195.9,662.6,192.6z M666,192.6
			c0,2.3,0.8,4.2,2.5,5.7c1.6,1.5,3.6,2.2,5.7,2.2c2.3,0,4.3-0.8,5.9-2.3c1.6-1.5,2.4-3.4,2.4-5.6c0-2.2-0.8-4.1-2.4-5.6
			c-1.6-1.5-3.5-2.3-5.9-2.3c-2.3,0-4.3,0.8-5.9,2.3C666.8,188.5,666,190.4,666,192.6z"/>
		<path class="st0" d="M698.9,203.2v-22.4l16.3,16v-14.6h3.4v22.3l-16.3-16v14.7H698.9z"/>
	</g>
	<polygon class="st0" points="231.5,152.7 89.7,152.7 104.4,137 86.7,152.6 86.6,152.6 86.6,161.8 233.5,161.2 	"/>
	<polygon class="st1" points="227.5,136.2 79.9,126.2 94.6,110.5 76.9,126.2 76.8,126.2 76.8,135.3 229.4,144.5 	"/>
	<polygon class="st2" points="222.7,117.9 76.9,98.9 91.7,83.1 74,98.8 73.9,98.8 73.9,107.9 224.8,126.2 	"/>
	<g>
		<path class="st0" d="M492.5,167.5V88.6H512c18.6,0,33,6.1,33,26.8c0,20.5-12.6,26.8-31.1,26.3v25.9H492.5z M515.4,105.6l-1.6,0.1
			v18.2c5.9,0.3,9.5-2.9,9.5-8.8C523.4,110.1,520.7,105.6,515.4,105.6z"/>
		<path class="st0" d="M553.6,167.5V88.6H575v60.3h16v18.6H553.6z"/>
		<path class="st0" d="M633.9,167.5l-1.6-10.2H618l-1.8,10.2h-22l18.9-78.9h26.1l16.7,78.9H633.9z M629.8,140.6l-2.3-18.3
			c-0.6-4.9-1-9.9-1.6-14.9h-0.2c-0.6,4.9-1.2,9.9-2,14.9l-2.9,18.3H629.8z"/>
		<path class="st0" d="M663,88.6h20.3l17.1,47.5l0.2-0.2c-0.8-9.1-2.4-18.1-2.4-27.2V88.6h20.5v78.9h-20.5L682.3,122l-0.2,0.2
			c0.5,7.4,1.5,14.8,1.5,22.2v23.1H663V88.6z"/>
	</g>
	<path class="st0" d="M267.2,167.6l23.2-79h-25c0,0-7.9,33.9-9,40.3h-0.2c-0.9-6.4-7.9-40.3-7.9-40.3H224l19.6,79H267.2L267.2,167.6
		z"/>
	<polygon class="st0" points="298.2,167.6 341.2,167.6 341.2,148.9 321.4,148.9 321.4,136.9 336.4,136.9 336.4,118.3 321.4,118.3 
		321.4,107.3 341.2,107.3 341.2,88.6 298.2,88.6 298.2,167.6 	"/>
	<polygon class="st3" points="417.4,167.6 396.7,126.7 415.2,88.6 390.9,88.6 378.2,116.6 377.8,116.6 377.8,116.8 378.1,116.6 
		377.9,116.6 378.1,116.6 378.1,88.6 354.9,88.6 354.9,167.6 378.1,167.6 378.1,137 378.3,137 378.2,137 392.6,167.6 417.4,167.6 	
		"/>
	<path class="st3" d="M486.1,167.6l-18.1-79h-28.2l-20.5,79H443l1.9-10.2h15.5l1.7,10.2H486.1L486.1,167.6z M448,137.9l3.2-15.5
		c0.9-4.9,1.5-10,2.2-14.9h0.2c0.6,4.9,1,10,1.7,14.9l2.5,15.5H448L448,137.9z"/>
</g>
</svg>
